<svg id="svg" version="1.1" xmlns="http://www.w3.org/2000/svg" xmlns:xlink="http://www.w3.org/1999/xlink" width="400" height="400" viewBox="0, 0, 400,400"><g id="svgg"><path id="path0" d="M247.736 179.250 C 243.497 188.246,243.693 198.965,248.252 207.417 L 249.106 209.000 251.511 209.000 L 253.917 209.000 252.628 206.583 C 248.042 197.984,247.997 187.634,252.509 179.083 L 253.960 176.333 251.535 176.333 L 249.111 176.333 247.736 179.250 M304.057 176.583 C 304.119 176.721,304.798 178.108,305.566 179.667 C 309.774 188.201,309.677 197.930,305.300 206.333 C 304.679 207.525,304.118 208.619,304.053 208.765 C 303.988 208.911,305.037 208.986,306.384 208.932 L 308.833 208.833 310.053 206.393 C 314.176 198.145,314.210 188.156,310.143 179.417 L 308.709 176.333 306.327 176.333 C 305.016 176.333,303.995 176.446,304.057 176.583 M133.333 184.732 C 130.125 188.797,127.350 192.160,127.167 192.206 C 126.905 192.272,121.599 185.866,115.591 178.232 C 115.042 177.535,115.014 178.135,115.007 190.750 L 115.000 204.000 117.384 204.000 L 119.769 204.000 119.578 197.002 L 119.387 190.005 121.229 192.572 C 123.705 196.023,126.673 199.811,126.996 199.932 C 127.140 199.986,128.875 197.849,130.850 195.182 C 132.826 192.515,134.456 190.333,134.471 190.333 C 134.487 190.333,134.447 193.408,134.382 197.167 L 134.265 204.000 136.799 204.000 L 139.333 204.000 139.333 190.667 C 139.333 183.333,139.296 177.336,139.250 177.338 C 139.204 177.341,136.542 180.668,133.333 184.732 M271.049 178.037 C 270.621 179.159,260.287 203.446,260.108 203.750 C 260.027 203.887,261.077 204.000,262.441 204.000 L 264.920 204.000 265.877 201.668 L 266.833 199.336 271.364 199.334 L 275.894 199.333 276.833 201.667 L 277.773 204.000 280.259 204.000 C 282.467 204.000,282.726 203.935,282.579 203.417 C 282.383 202.727,271.654 177.560,271.475 177.370 C 271.407 177.299,271.215 177.599,271.049 178.037 M224.075 178.324 C 212.563 182.466,211.851 197.794,222.917 203.226 C 226.082 204.780,231.250 204.637,234.767 202.898 C 237.599 201.499,237.574 201.554,236.819 198.548 C 236.036 195.427,236.049 195.449,235.474 196.270 C 232.704 200.224,226.415 200.585,222.936 196.991 C 215.271 189.073,226.579 177.192,234.529 184.810 C 235.364 185.610,236.105 186.092,236.176 185.882 C 236.498 184.927,237.333 181.358,237.329 180.952 C 237.308 178.577,228.321 176.795,224.075 178.324 M148.667 191.000 L 148.667 204.000 155.500 204.000 L 162.333 204.000 162.333 201.667 L 162.333 199.333 157.823 199.333 L 153.313 199.333 153.407 195.083 L 153.500 190.833 156.917 190.738 L 160.333 190.643 160.333 188.667 L 160.333 186.690 156.917 186.595 L 153.500 186.500 153.401 184.417 L 153.302 182.333 157.817 182.333 L 162.333 182.333 162.333 180.167 L 162.333 178.000 155.500 178.000 L 148.667 178.000 148.667 191.000 M170.333 191.000 L 170.333 204.000 175.288 204.000 C 187.337 204.000,192.833 199.928,192.833 191.000 C 192.833 182.049,187.430 178.000,175.484 178.000 L 170.333 178.000 170.333 191.000 M201.333 191.000 L 201.333 204.000 204.000 204.000 L 206.667 204.000 206.667 191.000 L 206.667 178.000 204.000 178.000 L 201.333 178.000 201.333 191.000 M290.000 191.000 L 290.000 204.000 292.667 204.000 L 295.333 204.000 295.333 191.000 L 295.333 178.000 292.667 178.000 L 290.000 178.000 290.000 191.000 M322.333 191.000 L 322.333 204.000 324.833 204.000 L 327.333 204.000 327.333 199.000 L 327.333 194.000 329.266 194.000 L 331.198 194.000 334.134 199.000 L 337.069 204.000 339.737 204.000 C 341.736 204.000,342.364 203.896,342.242 203.583 C 342.152 203.354,340.647 200.785,338.898 197.874 L 335.717 192.581 336.666 191.783 C 339.916 189.048,339.786 183.317,336.405 180.269 C 334.413 178.473,332.440 178.000,326.939 178.000 L 322.333 178.000 322.333 191.000 M349.000 191.000 L 349.000 204.000 355.833 204.000 L 362.667 204.000 362.667 201.667 L 362.667 199.333 358.333 199.333 L 354.000 199.333 354.000 195.000 L 354.000 190.667 357.333 190.667 L 360.667 190.667 360.667 188.667 L 360.667 186.667 357.333 186.667 L 354.000 186.667 354.000 184.500 L 354.000 182.333 358.333 182.333 L 362.667 182.333 362.667 180.167 L 362.667 178.000 355.833 178.000 L 349.000 178.000 349.000 191.000 M182.352 183.173 C 188.875 185.475,189.695 194.736,183.675 198.123 C 182.056 199.033,181.481 199.164,178.592 199.280 L 175.333 199.411 175.333 191.039 L 175.333 182.667 178.125 182.667 C 179.770 182.667,181.506 182.875,182.352 183.173 M332.549 183.309 C 335.976 185.398,334.059 189.551,329.500 189.917 L 327.333 190.091 327.333 186.379 L 327.333 182.667 329.417 182.668 C 330.882 182.669,331.811 182.859,332.549 183.309 M271.667 188.867 C 271.667 189.160,272.192 190.611,272.833 192.092 C 274.330 195.545,274.428 195.333,271.333 195.333 C 269.867 195.333,268.667 195.287,268.667 195.231 C 268.667 195.175,269.192 193.828,269.833 192.236 C 270.475 190.645,271.000 189.116,271.000 188.838 C 271.000 188.561,271.150 188.333,271.333 188.333 C 271.517 188.333,271.667 188.573,271.667 188.867 " stroke="none" fill="#350d48" fill-rule="evenodd"></path><path id="path1" d="M0.000 200.000 L 0.000 400.000 200.000 400.000 L 400.000 400.000 400.000 200.000 L 400.000 0.000 200.000 0.000 L 0.000 0.000 0.000 200.000 M75.359 146.641 C 77.434 148.716,75.988 152.000,73.000 152.000 C 70.917 152.000,69.511 150.506,69.771 148.568 C 70.153 145.721,73.340 144.622,75.359 146.641 M94.070 149.966 C 96.326 151.981,95.047 155.374,92.002 155.454 C 90.821 155.485,90.453 155.322,89.635 154.407 C 86.790 151.222,90.886 147.121,94.070 149.966 M57.083 152.371 C 59.927 155.389,55.243 159.628,52.308 156.692 C 50.617 155.002,51.179 152.462,53.459 151.487 C 54.828 150.902,55.960 151.178,57.083 152.371 M75.282 156.583 C 76.398 157.527,76.509 158.758,75.577 159.842 C 74.038 161.631,71.333 160.742,71.333 158.448 C 71.333 156.338,73.682 155.229,75.282 156.583 M89.895 160.058 C 91.321 161.398,90.590 163.714,88.592 164.186 C 87.512 164.442,85.667 162.859,85.667 161.677 C 85.667 159.759,88.444 158.695,89.895 160.058 M108.932 161.207 C 111.501 162.869,110.196 167.011,107.109 166.993 C 104.115 166.975,102.598 163.391,104.755 161.429 C 106.077 160.227,107.315 160.161,108.932 161.207 M63.000 161.667 C 64.503 163.169,63.373 165.667,61.191 165.667 C 59.009 165.667,58.061 163.267,59.578 161.583 C 60.298 160.784,62.163 160.830,63.000 161.667 M43.583 165.507 C 44.896 167.018,44.314 169.780,42.509 170.602 C 39.444 171.999,36.605 168.679,38.453 165.859 C 39.600 164.108,42.212 163.929,43.583 165.507 M101.340 169.013 C 102.273 170.755,101.162 172.667,99.218 172.667 C 96.549 172.667,95.964 168.942,98.487 168.009 C 99.363 167.684,100.923 168.234,101.340 169.013 M53.182 171.485 C 54.683 172.986,53.605 175.667,51.500 175.667 C 50.389 175.667,49.000 174.278,49.000 173.167 C 49.000 172.055,50.389 170.667,51.500 170.667 C 51.975 170.667,52.732 171.035,53.182 171.485 M254.101 176.212 C 254.218 176.329,254.037 176.817,253.700 177.296 C 248.262 185.008,247.958 197.564,252.982 206.879 L 254.306 209.333 251.699 209.333 L 249.093 209.333 248.062 207.400 C 243.152 198.187,243.436 184.346,248.686 176.973 C 249.362 176.023,253.352 175.463,254.101 176.212 M310.049 178.720 C 314.325 187.317,314.397 197.929,310.236 206.333 L 308.833 209.167 306.217 209.265 C 304.779 209.318,303.655 209.243,303.719 209.098 C 303.784 208.952,304.544 207.408,305.408 205.667 C 309.718 196.976,309.377 186.185,304.530 177.915 C 303.362 175.922,303.329 175.959,306.223 176.069 L 308.779 176.167 310.049 178.720 M120.838 184.500 C 123.918 188.350,126.605 191.684,126.807 191.909 C 127.088 192.221,127.688 191.666,129.333 189.576 C 130.520 188.067,133.256 184.601,135.412 181.873 L 139.333 176.912 139.333 190.456 L 139.333 204.000 136.840 204.000 L 134.347 204.000 134.257 197.495 L 134.167 190.990 130.729 195.662 C 128.838 198.231,127.188 200.329,127.062 200.324 C 126.880 200.317,122.776 195.059,120.175 191.500 C 119.741 190.907,119.687 191.558,119.677 197.417 L 119.667 204.000 117.167 204.000 L 114.667 204.000 114.667 190.433 C 114.667 182.900,114.793 177.007,114.952 177.183 C 115.108 177.357,117.757 180.650,120.838 184.500 M277.333 190.500 C 280.304 197.467,282.813 203.361,282.909 203.597 C 283.044 203.933,282.474 204.007,280.321 203.931 L 277.559 203.833 276.641 201.667 L 275.723 199.500 271.392 199.407 L 267.060 199.314 266.113 201.653 L 265.167 203.992 262.583 203.996 C 261.162 203.998,260.000 203.915,260.000 203.810 C 260.000 203.706,262.345 198.119,265.212 191.394 C 268.078 184.669,270.643 178.649,270.911 178.016 C 271.516 176.589,270.837 175.269,277.333 190.500 M233.674 178.297 C 234.686 178.678,235.997 179.405,236.587 179.912 L 237.659 180.833 236.946 183.667 C 236.554 185.225,236.192 186.551,236.142 186.613 C 236.093 186.675,235.506 186.121,234.838 185.382 C 229.705 179.701,220.681 183.282,220.681 191.000 C 220.681 198.662,229.755 202.244,234.856 196.597 C 235.514 195.869,236.093 195.325,236.142 195.387 C 236.761 196.160,237.565 201.226,237.143 201.693 C 233.310 205.928,223.601 205.307,218.814 200.519 C 208.447 190.153,219.860 173.085,233.674 178.297 M162.333 180.333 L 162.333 182.667 158.000 182.667 L 153.667 182.667 153.667 184.500 L 153.667 186.333 157.000 186.333 L 160.333 186.333 160.333 188.667 L 160.333 191.000 157.000 191.000 L 153.667 191.000 153.667 195.167 L 153.667 199.333 158.000 199.333 L 162.333 199.333 162.333 201.667 L 162.333 204.000 155.333 204.000 L 148.333 204.000 148.333 191.000 L 148.333 178.000 155.333 178.000 L 162.333 178.000 162.333 180.333 M185.167 178.981 C 193.058 182.103,195.795 192.883,190.286 199.141 C 186.823 203.076,184.139 204.000,176.177 204.000 L 170.333 204.000 170.333 190.975 L 170.333 177.949 176.750 178.069 C 182.555 178.178,183.357 178.265,185.167 178.981 M206.667 191.000 L 206.667 204.000 204.000 204.000 L 201.333 204.000 201.333 191.000 L 201.333 178.000 204.000 178.000 L 206.667 178.000 206.667 191.000 M295.333 191.000 L 295.333 204.000 292.500 204.000 L 289.667 204.000 289.667 191.000 L 289.667 178.000 292.500 178.000 L 295.333 178.000 295.333 191.000 M334.602 178.863 C 339.618 181.363,340.820 187.795,336.988 191.628 L 335.956 192.660 339.196 198.080 C 340.978 201.061,342.496 203.612,342.571 203.750 C 342.645 203.887,341.385 203.999,339.770 203.997 L 336.833 203.995 334.038 199.164 L 331.243 194.333 329.288 194.333 L 327.333 194.333 327.333 199.167 L 327.333 204.000 324.667 204.000 L 322.000 204.000 322.000 191.000 L 322.000 178.000 327.435 178.000 C 332.614 178.000,332.951 178.041,334.602 178.863 M362.932 180.250 L 362.833 182.500 358.417 182.593 L 354.000 182.686 354.000 184.498 L 354.000 186.310 357.417 186.405 L 360.833 186.500 360.833 188.667 L 360.833 190.833 357.417 190.928 L 354.000 191.023 354.000 195.178 L 354.000 199.333 358.500 199.333 L 363.000 199.333 363.000 201.667 L 363.000 204.000 355.833 204.000 L 348.667 204.000 348.667 191.000 L 348.667 178.000 355.849 178.000 L 363.030 178.000 362.932 180.250 M37.565 183.138 C 38.332 183.798,38.500 184.212,38.500 185.444 C 38.500 189.095,34.143 190.176,32.469 186.940 C 30.850 183.810,34.864 180.815,37.565 183.138 M175.333 191.000 L 175.333 199.432 178.317 199.239 C 184.604 198.831,187.485 196.242,187.485 191.000 C 187.485 185.712,184.646 183.124,178.438 182.754 L 175.333 182.569 175.333 191.000 M327.333 186.204 L 327.333 189.742 329.706 189.608 C 336.010 189.252,335.350 182.667,329.011 182.667 L 327.333 182.667 327.333 186.204 M48.122 183.691 C 49.883 185.076,48.896 188.000,46.667 188.000 C 44.438 188.000,43.450 185.076,45.212 183.691 C 45.695 183.311,46.349 183.000,46.667 183.000 C 46.984 183.000,47.639 183.311,48.122 183.691 M271.000 189.454 C 271.000 189.704,270.550 191.000,270.000 192.333 C 269.450 193.667,269.000 194.813,269.000 194.879 C 269.000 194.946,270.061 195.000,271.358 195.000 C 273.080 195.000,273.686 194.888,273.607 194.583 C 272.897 191.868,271.000 188.136,271.000 189.454 M51.122 197.691 C 52.233 198.565,52.301 200.137,51.275 201.229 C 49.539 203.077,46.487 201.086,47.389 198.694 C 48.039 196.968,49.652 196.535,51.122 197.691 M41.026 201.641 C 43.321 203.936,41.229 207.965,38.145 207.191 C 34.519 206.281,35.112 200.667,38.833 200.667 C 39.735 200.667,40.304 200.920,41.026 201.641 M98.750 206.591 C 99.550 207.294,99.505 209.162,98.667 210.000 C 97.175 211.491,94.667 210.374,94.667 208.218 C 94.667 206.024,97.031 205.082,98.750 206.591 M59.643 208.488 C 61.832 209.620,61.072 213.000,58.627 213.000 C 56.012 213.000,55.067 209.291,57.438 208.336 C 58.451 207.928,58.577 207.937,59.643 208.488 M86.122 213.024 C 87.733 214.292,86.802 217.333,84.802 217.333 C 82.219 217.333,81.222 214.589,83.231 213.009 C 84.320 212.153,85.018 212.156,86.122 213.024 M106.183 213.215 C 108.111 215.297,106.563 218.667,103.677 218.667 C 100.699 218.667,99.468 215.312,101.690 213.250 C 103.052 211.985,105.029 211.970,106.183 213.215 M72.221 213.826 C 74.449 215.386,72.508 218.825,69.911 217.919 C 68.855 217.551,68.333 216.758,68.333 215.522 C 68.333 213.709,70.626 212.708,72.221 213.826 M52.867 216.467 C 54.118 217.718,54.299 218.788,53.516 220.303 C 52.571 222.129,49.845 222.447,48.400 220.899 C 45.403 217.688,49.762 213.362,52.867 216.467 M89.692 222.974 C 90.414 223.696,90.667 224.265,90.667 225.167 C 90.667 228.906,84.837 229.525,84.150 225.859 C 83.545 222.635,87.364 220.646,89.692 222.974 M69.478 223.325 C 70.690 223.786,71.738 225.590,71.508 226.817 C 70.761 230.796,65.000 230.305,65.000 226.263 C 65.000 223.856,67.155 222.442,69.478 223.325 " stroke="none" fill="#fbfbfb" fill-rule="evenodd"></path><path id="path2" d="M70.831 146.417 C 68.539 148.389,69.942 152.000,73.000 152.000 C 74.867 152.000,76.333 150.607,76.333 148.833 C 76.333 146.138,72.906 144.633,70.831 146.417 M89.641 149.974 C 87.575 152.041,89.079 155.530,92.002 155.454 C 95.047 155.374,96.326 151.981,94.070 149.966 C 92.591 148.644,90.969 148.647,89.641 149.974 M53.459 151.487 C 51.179 152.462,50.617 155.002,52.308 156.692 C 55.243 159.628,59.927 155.389,57.083 152.371 C 55.960 151.178,54.828 150.902,53.459 151.487 M72.000 156.667 C 71.117 157.550,71.119 159.369,72.004 160.171 C 73.619 161.632,76.658 160.077,76.177 158.036 C 75.729 156.137,73.320 155.347,72.000 156.667 M86.485 160.152 C 85.398 161.238,85.453 162.171,86.675 163.393 C 87.823 164.541,89.052 164.501,90.083 163.282 C 92.068 160.937,88.662 157.974,86.485 160.152 M106.000 160.562 C 104.271 161.218,103.238 163.546,104.009 165.048 C 105.985 168.900,111.549 166.575,110.015 162.539 C 109.502 161.190,107.257 160.085,106.000 160.562 M59.578 161.583 C 58.648 162.615,58.560 163.775,59.339 164.764 C 60.742 166.548,63.667 165.581,63.667 163.333 C 63.667 161.341,60.874 160.145,59.578 161.583 M39.769 164.654 C 37.696 165.533,37.236 168.521,38.939 170.042 C 41.191 172.054,44.333 170.497,44.333 167.368 C 44.333 165.331,41.770 163.806,39.769 164.654 M98.487 168.009 C 95.964 168.942,96.549 172.667,99.218 172.667 C 101.162 172.667,102.273 170.755,101.340 169.013 C 100.923 168.234,99.363 167.684,98.487 168.009 M49.818 171.485 C 48.317 172.986,49.395 175.667,51.500 175.667 C 52.611 175.667,54.000 174.278,54.000 173.167 C 54.000 172.055,52.611 170.667,51.500 170.667 C 51.025 170.667,50.268 171.035,49.818 171.485 M33.417 182.845 C 32.267 183.651,31.803 185.653,32.469 186.940 C 34.143 190.176,38.500 189.095,38.500 185.444 C 38.500 182.857,35.552 181.350,33.417 182.845 M45.212 183.691 C 43.450 185.076,44.438 188.000,46.667 188.000 C 48.896 188.000,49.883 185.076,48.122 183.691 C 47.639 183.311,46.984 183.000,46.667 183.000 C 46.349 183.000,45.695 183.311,45.212 183.691 M48.263 197.454 C 46.950 198.452,46.948 200.547,48.259 201.542 C 49.766 202.687,52.000 201.419,52.000 199.419 C 52.000 197.600,49.678 196.379,48.263 197.454 M36.641 201.641 C 34.152 204.130,36.801 208.325,40.020 206.992 C 43.251 205.653,42.316 200.667,38.833 200.667 C 37.932 200.667,37.362 200.920,36.641 201.641 M96.333 205.906 C 93.764 206.834,94.301 210.667,97.000 210.667 C 99.801 210.667,100.226 206.624,97.500 205.902 C 97.133 205.805,96.608 205.807,96.333 205.906 M57.438 208.336 C 55.067 209.291,56.012 213.000,58.627 213.000 C 61.072 213.000,61.832 209.620,59.643 208.488 C 58.577 207.937,58.451 207.928,57.438 208.336 M83.231 213.009 C 82.083 213.912,81.862 214.766,82.470 215.943 C 83.299 217.546,85.079 217.835,86.275 216.562 C 88.358 214.345,85.611 211.137,83.231 213.009 M101.690 213.250 C 100.267 214.571,100.179 216.543,101.485 217.848 C 103.445 219.809,107.000 218.235,107.000 215.408 C 107.000 212.537,103.841 211.253,101.690 213.250 M69.000 214.000 C 67.778 215.222,68.272 217.348,69.911 217.919 C 72.508 218.825,74.449 215.386,72.221 213.826 C 71.235 213.135,69.787 213.213,69.000 214.000 M48.963 215.833 C 46.483 217.181,47.223 221.223,50.064 221.847 C 53.270 222.552,55.216 218.816,52.867 216.467 C 51.618 215.218,50.444 215.028,48.963 215.833 M85.583 222.360 C 84.613 222.925,83.918 224.623,84.150 225.859 C 84.837 229.525,90.667 228.906,90.667 225.167 C 90.667 222.787,87.681 221.138,85.583 222.360 M66.786 223.331 C 65.241 223.954,64.484 226.413,65.343 228.018 C 66.272 229.753,69.205 230.056,70.608 228.562 C 73.048 225.965,70.136 221.979,66.786 223.331 " stroke="none" fill="#f4ab8c" fill-rule="evenodd"></path><path id="path3" d="M250.000 176.205 C 251.990 176.455,254.258 176.480,254.116 176.250 C 254.030 176.112,252.882 176.022,251.564 176.050 C 250.245 176.077,249.542 176.147,250.000 176.205 M304.333 176.206 C 306.290 176.454,308.926 176.481,308.783 176.250 C 308.697 176.112,307.474 176.022,306.064 176.050 C 304.654 176.077,303.875 176.148,304.333 176.206 M289.818 191.000 C 289.818 198.242,289.862 201.204,289.916 197.583 C 289.970 193.963,289.970 188.037,289.916 184.417 C 289.862 180.796,289.818 183.758,289.818 191.000 M322.152 191.000 C 322.152 198.242,322.196 201.204,322.250 197.583 C 322.303 193.963,322.303 188.037,322.250 184.417 C 322.196 180.796,322.152 183.758,322.152 191.000 M348.818 191.000 C 348.818 198.242,348.862 201.204,348.916 197.583 C 348.970 193.963,348.970 188.037,348.916 184.417 C 348.862 180.796,348.818 183.758,348.818 191.000 M362.730 180.074 L 362.667 182.314 358.250 182.418 L 353.833 182.521 358.260 182.594 C 363.305 182.677,363.101 182.800,362.914 179.796 L 362.793 177.833 362.730 180.074 M155.750 182.581 C 156.987 182.645,159.012 182.645,160.250 182.581 C 161.487 182.516,160.475 182.464,158.000 182.464 C 155.525 182.464,154.512 182.516,155.750 182.581 M360.773 188.667 C 360.773 189.858,360.834 190.346,360.908 189.750 C 360.982 189.154,360.982 188.179,360.908 187.583 C 360.834 186.987,360.773 187.475,360.773 188.667 M214.767 191.000 C 214.767 192.008,214.829 192.421,214.905 191.917 C 214.982 191.412,214.982 190.588,214.905 190.083 C 214.829 189.579,214.767 189.992,214.767 191.000 M244.411 191.333 C 244.411 191.975,244.479 192.237,244.563 191.917 C 244.647 191.596,244.647 191.071,244.563 190.750 C 244.479 190.429,244.411 190.692,244.411 191.333 M308.417 191.500 C 308.421 192.233,308.489 192.494,308.569 192.079 C 308.649 191.665,308.646 191.065,308.562 190.746 C 308.479 190.427,308.414 190.767,308.417 191.500 M308.411 194.000 C 308.411 194.642,308.479 194.904,308.563 194.583 C 308.647 194.262,308.647 193.737,308.563 193.417 C 308.479 193.096,308.411 193.358,308.411 194.000 M244.411 194.333 C 244.411 194.975,244.479 195.237,244.563 194.917 C 244.647 194.596,244.647 194.071,244.563 193.750 C 244.479 193.429,244.411 193.692,244.411 194.333 M328.256 194.242 C 328.855 194.316,329.755 194.314,330.256 194.238 C 330.757 194.162,330.267 194.101,329.167 194.103 C 328.067 194.105,327.657 194.167,328.256 194.242 M271.333 195.000 L 268.833 195.213 271.417 195.273 C 272.957 195.309,274.000 195.199,274.000 195.000 C 274.000 194.817,273.962 194.694,273.917 194.727 C 273.871 194.760,272.708 194.883,271.333 195.000 M362.779 201.667 C 362.779 203.042,362.838 203.604,362.909 202.917 C 362.981 202.229,362.981 201.104,362.909 200.417 C 362.838 199.729,362.779 200.292,362.779 201.667 " stroke="none" fill="#c2a3b3" fill-rule="evenodd"></path><path id="path4" d="M114.819 190.667 C 114.819 198.092,114.863 201.129,114.916 197.417 C 114.970 193.704,114.970 187.629,114.916 183.917 C 114.863 180.204,114.819 183.242,114.819 190.667 M227.917 177.569 C 228.329 177.648,229.004 177.648,229.417 177.569 C 229.829 177.489,229.492 177.424,228.667 177.424 C 227.842 177.424,227.504 177.489,227.917 177.569 M148.485 191.000 C 148.485 198.242,148.529 201.204,148.583 197.583 C 148.637 193.963,148.637 188.037,148.583 184.417 C 148.529 180.796,148.485 183.758,148.485 191.000 M153.472 184.333 L 153.500 186.500 156.917 186.518 L 160.335 186.537 157.016 186.424 L 153.698 186.310 153.571 184.239 L 153.444 182.167 153.472 184.333 M227.917 182.569 C 228.329 182.648,229.004 182.648,229.417 182.569 C 229.829 182.489,229.492 182.424,228.667 182.424 C 227.842 182.424,227.504 182.489,227.917 182.569 M355.583 186.579 C 356.546 186.646,358.121 186.646,359.083 186.579 C 360.046 186.512,359.258 186.457,357.333 186.457 C 355.408 186.457,354.621 186.512,355.583 186.579 M328.083 189.905 C 328.587 189.982,329.412 189.982,329.917 189.905 C 330.421 189.829,330.008 189.767,329.000 189.767 C 327.992 189.767,327.579 189.829,328.083 189.905 M193.077 191.000 C 193.077 191.642,193.146 191.904,193.230 191.583 C 193.314 191.262,193.314 190.737,193.230 190.417 C 193.146 190.096,193.077 190.358,193.077 191.000 M153.478 191.103 C 153.386 191.343,153.359 193.330,153.417 195.519 L 153.523 199.500 153.595 195.262 L 153.667 191.023 157.083 190.915 L 160.500 190.807 157.073 190.737 C 154.506 190.684,153.604 190.776,153.478 191.103 M355.583 190.912 C 356.546 190.980,358.121 190.980,359.083 190.912 C 360.046 190.845,359.258 190.790,357.333 190.790 C 355.408 190.790,354.621 190.845,355.583 190.912 M249.095 192.833 C 249.098 193.750,249.163 194.085,249.239 193.579 C 249.316 193.072,249.314 192.322,249.235 191.912 C 249.156 191.502,249.093 191.917,249.095 192.833 M119.411 192.667 C 119.411 193.308,119.479 193.571,119.563 193.250 C 119.647 192.929,119.647 192.404,119.563 192.083 C 119.479 191.762,119.411 192.025,119.411 192.667 M228.254 199.569 C 228.669 199.649,229.269 199.646,229.587 199.562 C 229.906 199.479,229.567 199.414,228.833 199.417 C 228.100 199.421,227.839 199.489,228.254 199.569 M228.083 204.563 C 228.404 204.647,228.929 204.647,229.250 204.563 C 229.571 204.479,229.308 204.411,228.667 204.411 C 228.025 204.411,227.762 204.479,228.083 204.563 M303.667 209.083 C 303.667 209.221,304.783 209.333,306.147 209.333 C 307.511 209.333,308.697 209.221,308.782 209.083 C 308.867 208.946,307.751 208.833,306.302 208.833 C 304.852 208.833,303.667 208.946,303.667 209.083 M250.417 209.243 C 251.104 209.315,252.229 209.315,252.917 209.243 C 253.604 209.171,253.042 209.112,251.667 209.112 C 250.292 209.112,249.729 209.171,250.417 209.243 " stroke="none" fill="#8c7c9e" fill-rule="evenodd"></path></g></svg>